<?xml version="1.0" encoding="iso-8859-1"?>
<!-- Generator: Adobe Illustrator 19.0.0, SVG Export Plug-In . SVG Version: 6.00 Build 0)  -->
<svg version="1.1" id="Layer_1" xmlns="http://www.w3.org/2000/svg" xmlns:xlink="http://www.w3.org/1999/xlink" x="0px" y="0px"
	 viewBox="0 0 512 512" style="enable-background:new 0 0 512 512;" xml:space="preserve">
<g id="Others">
</g>
<g id="Design">
</g>
<g id="SEO_x2F__Web">
	<g id="website__x26__code">
		
			<radialGradient id="SVGID_1_" cx="256" cy="258" r="256" gradientTransform="matrix(1 0 0 -1 0 514)" gradientUnits="userSpaceOnUse">
			<stop  offset="0.0051" style="stop-color:#33495F"/>
			<stop  offset="1" style="stop-color:#2B3E51"/>
		</radialGradient>
		<circle style="fill:url(#SVGID_1_);" cx="256" cy="256" r="256"/>
		<g>
			<path style="fill:#BDC3C7;" d="M434,361.728c0,11.047-9.647,20.272-20.693,20.272h-315C87.261,382,79,372.774,79,361.728v-222
				C79,128.683,87.261,120,98.307,120h315c11.046,0,20.693,8.683,20.693,19.728V361.728z"/>
			<path style="fill:#FFFFFF;" d="M417,350c0,5.523-4.477,10-10,10H105c-5.523,0-10-4.477-10-10V178c0-5.523,4.477-10,10-10h302
				c5.523,0,10,4.477,10,10V350z"/>
			<circle style="fill:#FFFFFF;" cx="106.337" cy="144.396" r="9.666"/>
			<circle style="fill:#EE483C;" cx="106.337" cy="144.396" r="9.666"/>
			<circle style="fill:#F4C342;" cx="136.337" cy="144.396" r="9.666"/>
			<circle style="fill:#00CA77;" cx="166.337" cy="144.396" r="9.666"/>
			<path style="fill:#1C99D8;" d="M216.88,289.033c1.8,0.709,3.271,2.869,3.271,4.803v19.385c0,1.934-1.451,2.887-3.226,2.117
				l-87.447-37.898c-1.774-0.77-3.226-2.98-3.226-4.914v-15.557c0-1.934,1.451-4.145,3.226-4.914l87.447-37.898
				c1.774-0.77,3.226,0.184,3.226,2.117v19.57c0,1.934-1.477,4.084-3.28,4.777l-58.869,22.676c-1.804,0.693-1.809,1.842-0.01,2.551
				L216.88,289.033z"/>
			<path style="fill:#1C99D8;" d="M278.208,212.197l-26.135,107.619c-0.872,3.547-1.634,6.348-2.288,8.4
				c-0.653,2.053-1.648,3.656-2.986,4.807s-3.282,1.727-5.833,1.727c-6.348,0-9.521-2.738-9.521-8.213
				c0-1.432,0.622-5.008,1.867-10.734l26.041-107.619c1.368-5.725,2.676-9.645,3.921-11.76c1.243-2.115,3.671-3.174,7.28-3.174
				c3.11,0,5.491,0.746,7.14,2.24c1.648,1.492,2.474,3.547,2.474,6.16C280.167,203.58,279.515,207.096,278.208,212.197z"/>
			<path style="fill:#1380B6;" d="M385.267,272.525c0,1.934-1.451,4.146-3.223,4.918l-87.453,38.076
				c-1.772,0.771-3.223-0.178-3.223-2.111v-19.385c0-1.934,1.473-4.094,3.272-4.801l59.071-23.191
				c1.801-0.705,1.798-1.855-0.006-2.553l-59.06-22.852c-1.804-0.697-3.278-2.85-3.278-4.783v-19.197
				c0-1.934,1.453-2.889,3.228-2.123l87.442,37.725c1.775,0.766,3.229,2.973,3.229,4.906v15.371H385.267z"/>
			<path style="fill:#F4C342;" d="M377.259,210.268c0-40.544,19.478-60.02,60.021-60.02c-40.543,0-60.021-19.479-60.021-60.021
				c0,40.543-19.478,60.021-60.02,60.021C357.781,150.248,377.259,169.724,377.259,210.268z"/>
			<path style="fill:#F4C342;" d="M422.038,243.063c0-23.779,11.425-35.202,35.202-35.202c-23.777,0-35.202-11.423-35.202-35.201
				c0,23.778-11.423,35.201-35.201,35.201C410.615,207.861,422.038,219.284,422.038,243.063z"/>
			<path style="fill:#F4C342;" d="M313.376,149.714c0-23.577,11.327-34.903,34.902-34.903c-23.575,0-34.902-11.326-34.902-34.902
				c0,23.576-11.327,34.902-34.903,34.902C302.049,114.811,313.376,126.137,313.376,149.714z"/>
		</g>
	</g>
</g>
<g id="Finance__x2F__Money">
</g>
<g id="E-Commerce__x2F__Shopping">
</g>
<g id="Strategy">
</g>
<g>
</g>
<g>
</g>
<g>
</g>
<g>
</g>
<g>
</g>
<g>
</g>
<g>
</g>
<g>
</g>
<g>
</g>
<g>
</g>
<g>
</g>
<g>
</g>
<g>
</g>
<g>
</g>
<g>
</g>
</svg>
